<svg width="1000" height="1000" xmlns="http://www.w3.org/2000/svg">
 <metadata>Svg Vector Icons : http://www.onlinewebfonts.com/icon</metadata>

 <g>
  <title>background</title>
  <rect fill="none" id="canvas_background" height="402" width="582" y="-1" x="-1"/>
 </g>
 <g>
  <title>Layer 1</title>
  <g id="svg_1">
   <path id="svg_2" d="m964.8,76.8c-298.1,182.9 -514.5,413.8 -611.7,529.6l-238,-186.6l-105.1,84.7l411.3,418.6c70.8,-181.5 295,-536.1 568.7,-788.1l-25.2,-58.2z"/>
  </g>
  <rect id="svg_3" height="323.34399" width="268.342178" y="352.390965" x="35.818034" stroke-width="1.5" stroke="#000" fill="#1aefef"/>
  <rect id="svg_4" height="151.671666" width="323.34399" y="565.73133" x="185.822978" stroke-width="1.5" stroke="#000" fill="#1aefef"/>
  <rect id="svg_5" height="265.008734" width="241.674632" y="674.068234" x="289.159718" stroke-width="1.5" stroke="#000" fill="#1aefef"/>
  <rect id="svg_6" height="283.342672" width="91.669688" y="375.725068" x="499.166639" stroke-width="1.5" stroke="#000" fill="#1aefef"/>
  <rect id="svg_7" height="223.340694" width="193.339706" y="297.389152" x="570.835668" stroke-width="1.5" stroke="#000" fill="#1aefef"/>
  <rect id="svg_8" height="126.670842" width="181.672654" y="172.385032" x="689.172902" stroke-width="1.5" stroke="#000" fill="#1aefef"/>
  <rect id="svg_9" height="131.671006" width="190.006262" y="140.717322" x="782.509311" stroke-width="1.5" stroke="#000" fill="#1aefef"/>
  <rect id="svg_10" height="85.002802" width="121.670677" y="62.381407" x="892.512937" stroke-width="1.5" stroke="#000" fill="#1aefef"/>
  <rect id="svg_11" height="121.670677" width="118.337234" y="475.728364" x="-4.183284" stroke-width="1.5" stroke="#000" fill="#1aefef"/>
  <rect id="svg_12" height="68.335586" width="115.00379" y="652.400853" x="152.488546" stroke-width="1.5" stroke="#000" fill="#1aefef"/>
  <rect id="svg_13" height="108.336904" width="143.338058" y="687.402007" x="194.156586" stroke-width="1.5" stroke="#000" fill="#1aefef"/>
  <rect id="svg_14" height="113.337069" width="190.006262" y="629.066751" x="455.831878" stroke-width="1.5" stroke="#000" fill="#1aefef"/>
  <rect id="svg_15" height="115.00379" width="153.338387" y="460.727869" x="374.162519" stroke-width="1.5" stroke="#000" fill="#1aefef"/>
  <rect id="svg_16" height="46.668205" width="161.671995" y="572.398216" x="550.835009" stroke-width="1.5" stroke="#000" fill="#1aefef"/>
  <rect id="svg_17" height="110.003626" width="101.670018" y="469.061477" x="560.835338" stroke-width="1.5" stroke="#000" fill="#1aefef"/>
  <rect id="svg_18" height="40.001318" width="51.66837" y="445.727375" x="482.499423" stroke-width="1.5" stroke="#000" fill="#1aefef"/>
  <rect id="svg_19" height="65.002142" width="71.669029" y="327.390141" x="754.175044" stroke-width="1.5" stroke="#000" fill="#1aefef"/>
  <rect id="svg_20" height="56.668534" width="103.336739" y="280.721936" x="757.508487" stroke-width="1.5" stroke="#000" fill="#1aefef"/>
  <rect id="svg_21" height="58.335256" width="60.001978" y="245.720783" x="644.171418" stroke-width="1.5" stroke="#000" fill="#1aefef"/>
  <rect id="svg_22" height="33.334432" width="43.334762" y="125.716827" x="867.512113" stroke-width="1.5" stroke="#000" fill="#1aefef"/>
  <ellipse ry="45.834844" rx="53.335091" id="svg_23" cy="476.561724" cx="125.821001" stroke-width="1.5" stroke="#000" fill="#1aefef"/>
  <ellipse ry="51.66837" rx="51.66837" id="svg_24" cy="550.730836" cx="249.158399" stroke-width="1.5" stroke="#000" fill="#1aefef"/>
  <ellipse ry="37.501236" rx="37.501236" id="svg_25" cy="568.231412" cx="361.662107" stroke-width="1.5" stroke="#000" fill="#1aefef"/>
  <ellipse ry="35.001154" rx="35.001154" id="svg_26" cy="699.069058" cx="160.822154" stroke-width="1.5" stroke="#000" fill="#1aefef"/>
  <ellipse ry="30.000989" rx="30.000989" id="svg_27" cy="544.063949" cx="662.505356" stroke-width="1.5" stroke="#000" fill="#1aefef"/>
  <ellipse ry="35.834514" rx="35.834514" id="svg_28" cy="608.232731" cx="558.335256" stroke-width="1.5" stroke="#000" fill="#1aefef"/>
  <ellipse ry="28.334267" rx="28.334267" id="svg_29" cy="372.391624" cx="585.836162" stroke-width="1.5" stroke="#000" fill="#1aefef"/>
  <ellipse ry="22.500742" rx="22.500742" id="svg_30" cy="131.550353" cx="876.679082" stroke-width="1.5" stroke="#000" fill="#1aefef"/>
  <ellipse ry="34.167793" rx="34.167793" id="svg_31" cy="391.558923" cx="756.675126" stroke-width="1.5" stroke="#000" fill="#1aefef"/>
  <ellipse ry="24.167463" rx="24.167463" id="svg_32" cy="289.888905" cx="638.337893" stroke-width="1.5" stroke="#000" fill="#1aefef"/>
  <ellipse ry="44.168122" rx="44.168122" id="svg_33" cy="723.236521" cx="461.665403" stroke-width="1.5" stroke="#000" fill="#1aefef"/>
  <rect id="svg_34" height="96.669853" width="96.669853" y="577.398381" x="225.824297" stroke-width="1.5" stroke="#000" fill="#1aefef"/>
  <rect id="svg_35" height="133.337728" width="133.337728" y="307.389482" x="582.502719" stroke-width="1.5" stroke="#000" fill="#1aefef"/>
 </g>
</svg>